# xmcd
#
# Track frame offsets:
#	150
#	17980
#	33356
#	48911
#	67346
#	80686
#	96785
#	112932
#	132199
#	150110
#
# Disc length: 2167 seconds
#
# Revision: 1
# Processed by: cddbd v1.5.2PL0 Copyright (c) Steve Scherf et al.
# Submitted via: audiograbber 1.83.01
#
DISCID=7808750a
DTITLE=Karen Peck and New River - Revival
DYEAR=2013
DGENRE=Southern Gospel
TTITLE0=Revival
TTITLE1=Oh, Hallelujah
TTITLE2=Finish Well
TTITLE3=Everybody's Going Through Something
TTITLE4=Dancing Like Lazarus
TTITLE5=Jesus, Remember Me
TTITLE6=I've Been Broken
TTITLE7=Joy In My Heart
TTITLE8=You Did It Anyway
TTITLE9=I'm Saved
EXTD=
EXTT0=
EXTT1=
EXTT2=
EXTT3=
EXTT4=
EXTT5=
EXTT6=
EXTT7=
EXTT8=
EXTT9=
PLAYORDER=
